<svg id="visual" viewBox="0 0 900 600" width="900" height="600" xmlns="http://www.w3.org/2000/svg" xmlns:xlink="http://www.w3.org/1999/xlink" version="1.1"><rect x="0" y="0" width="900" height="600" fill="#fff"></rect><path d="M585 0L558.7 50C532.3 100 479.7 200 441.7 300C403.7 400 380.3 500 368.7 550L357 600L0 600L0 550C0 500 0 400 0 300C0 200 0 100 0 50L0 0Z" fill="#ffffff"></path><path d="M344 0L346.3 50C348.7 100 353.3 200 365.7 300C378 400 398 500 408 550L418 600L0 600L0 550C0 500 0 400 0 300C0 200 0 100 0 50L0 0Z" fill="#f2f2f2"></path><path d="M289 0L279 50C269 100 249 200 249.7 300C250.3 400 271.7 500 282.3 550L293 600L0 600L0 550C0 500 0 400 0 300C0 200 0 100 0 50L0 0Z" fill="#e5e5e5"></path></svg>